<svg id="Layer_1" data-name="Layer 1" xmlns="http://www.w3.org/2000/svg" viewBox="0 0 72.9 91.91"><defs><style>.cls-1{fill:#19063d;}</style></defs><path class="cls-1" d="M39,6C46.91.65,58.81,2.91,64.08,11c2.73,3.66,3.37,8.33,3.36,12.78,3.59.11,7.49-.66,10.79,1.1A9.53,9.53,0,0,1,83,33Q84.2,59,85.4,85c.61,5.29-4.07,10.1-9.31,10Q49,95,21.9,95C16.68,95.1,12,90.3,12.6,85c.75-17,1.59-34.07,2.33-51.1.05-3.09,1-6.44,3.67-8.3,3.37-2.72,7.94-1.77,11.93-1.91C30.19,16.86,33,9.73,39,6Zm1.08,7c-2.81,2.79-3.44,6.87-3.38,10.67,8.25-.06,16.51.11,24.76-.09-.24-3.5-.53-7.3-3-10C54.08,8,44.76,7.77,40.06,13.05ZM22.9,29.84c-.94,1.2-2,2.44-1.82,4.08-.76,17-1.6,34.11-2.33,51.16-.58,2.55,2,4.14,4.25,3.8,17.67,0,35.35.06,53,0A3.17,3.17,0,0,0,79.25,85c-.79-17.36-1.55-34.74-2.42-52.1A3.19,3.19,0,0,0,73,29.74C56.33,29.71,39.61,29.89,22.9,29.84Z" transform="translate(-12.55 -3.1)"/><path class="cls-1" d="M33.34,36.33c3-.68,3.82,2.7,4.56,4.81,2.67,7.35,13.06,9.8,18.89,4.69,2.76-2,3.65-5.32,4.88-8.29,1.38-2.3,5.32-1.23,5.53,1.4-.87,9.19-10,16.36-19.13,15.58A18.26,18.26,0,0,1,31,39.9,3,3,0,0,1,33.34,36.33Z" transform="translate(-12.55 -3.1)"/></svg>