<svg width="160" height="56" viewBox="0 0 160 56" fill="none" xmlns="http://www.w3.org/2000/svg">
<path d="M82.5531 4.57465C83.5654 4.07446 84.3042 4.71854 84.2289 5.79428C84.8377 12.6461 81.1303 18.9498 77.0056 24.0956C77.4112 20.3741 78.1274 16.6932 79.1466 13.0915C80.029 10.1726 80.7336 7.08243 82.5531 4.57465Z" fill="white"/>
<path d="M126.55 19.6213C127.432 15.2362 127.692 10.4467 130.291 6.6645L131.83 6.58228C132.166 9.02846 131.855 11.5199 130.928 13.808C130.001 16.096 128.492 18.1005 126.55 19.6213Z" fill="white"/>
<path d="M6.78349 18.5524C8.52092 13.8795 12.2557 9.46001 17.4133 8.62408C20.1152 8.44593 23.2138 8.20612 25.3959 10.1315C28.3098 12.6461 27.9268 17.1615 26.3946 20.3339C24.8829 23.3213 21.4012 24.26 18.3914 24.9657C18.6719 21.1972 20.0947 17.5246 19.8005 13.7287C18.1657 11.6732 14.3283 12.7009 14.0068 15.3457C13.3228 18.4839 12.9466 21.67 12.3036 24.815C10.9907 24.5901 9.65263 24.5532 8.3294 24.7054C8.3294 25.9319 7.72061 27.4461 8.54829 28.4807C9.55918 28.8514 10.5946 29.1513 11.6469 29.3783C10.6619 32.8659 10.9013 36.7989 9.05447 39.9713C7.03658 40.5606 6.03106 38.0802 5.52488 36.5454C3.94478 30.6322 4.68353 24.2326 6.78349 18.5524Z" fill="white"/>
<path d="M40.3351 24.5889C41.2106 23.9928 42.2777 24.5889 43.2217 24.6368C44.2477 28.3094 40.4856 30.3513 37.4622 30.8378C37.811 28.6041 38.0915 25.7742 40.3351 24.5889Z" fill="white"/>
<path d="M89.9612 30.8172C90.2485 28.3163 90.8436 24.3354 94.0654 24.2943C96.1516 24.1024 96.2064 27.035 95.1188 28.1313C93.8396 29.6798 91.8833 30.4061 89.9612 30.8172Z" fill="white"/>
<path d="M142.132 26.4868C143.151 24.2462 146.92 24.5409 147.481 27.0075C148.165 29.7483 148.165 33.2085 146.065 35.3462C145.128 36.4974 143.534 35.7094 142.31 35.6477C141.504 34.2623 141.064 32.6936 141.033 31.0904C141.002 29.4872 141.38 27.9026 142.132 26.4868Z" fill="white"/>
<path d="M83.6907 0.102788C84.4891 -0.0914355 85.3295 -0.0088231 86.075 0.337136C86.8204 0.683095 87.4267 1.27196 87.7949 2.0076C89.2108 4.50853 88.903 7.55075 88.5405 10.2846C87.0014 17.9861 81.8028 24.2076 76.4742 29.6822C76.1596 36.952 75.7423 44.3657 77.1583 51.5465C78.711 51.4232 78.7247 49.6828 78.9436 48.5043C79.2788 43.4476 78.157 38.4594 77.2404 33.5193C77.3344 32.8157 77.6011 32.1464 78.0165 31.5713C78.4319 30.9962 78.9831 30.5331 79.6208 30.2235C81.6181 30.0385 83.636 30.155 85.6471 30.0248C85.948 24.5433 91.345 19.425 96.9267 20.7817C100.463 21.4669 101.776 26.0096 100.101 28.9422C98.4179 32.4915 94.3068 33.3411 91.0235 34.7183C94.4436 37.7811 99.2866 35.9928 102.481 33.5261C102.768 29.8946 103.357 25.9891 106.113 23.31C108.391 21.0969 112.098 19.6169 115.094 21.2545C117.831 22.7756 118.015 26.7839 116.168 29.0793C115.672 29.4541 115.062 29.6482 114.44 29.6295C113.819 29.6108 113.222 29.3805 112.748 28.9765C112.871 27.7363 113.179 26.5167 113.248 25.2696C112.119 23.8582 110.135 25.0504 109.417 26.2837C108.001 28.8463 107.522 32.1969 108.979 34.8417C110.252 36.6437 112.762 36.5067 114.677 36.0956C117.413 35.1569 119.465 32.9506 121.429 30.8882C121.429 29.0793 121.47 27.2704 121.511 25.4615C120.375 25.3382 119.24 25.208 118.09 25.0641C117.76 24.3784 117.599 23.6227 117.623 22.8615C117.647 22.1003 117.854 21.3562 118.227 20.6926C119.513 20.5898 120.792 20.5076 122.078 20.4254C123.016 14.9439 124.425 9.1952 128.187 4.92649C129.924 2.9326 132.975 1.94594 135.178 3.77538C138.249 9.51723 135.321 16.4856 130.813 20.5487C132.638 20.4726 134.465 20.5 136.286 20.6309C137.462 21.4052 136.833 23.1319 136.34 24.1596C133.413 25.9822 129.781 25.0572 126.538 25.482C126.702 28.908 125.971 33.067 128.59 35.7187C131.272 37.2946 134.432 35.8694 136.354 33.7659C136.279 30.5045 136.409 26.9552 138.611 24.3241C141.156 20.4185 147.216 19.1646 150.753 22.4261C156.225 27.6883 153.749 39.035 146.122 40.837C144.806 41.1811 143.422 41.1614 142.116 40.7802C140.81 40.3989 139.632 39.6703 138.707 38.6719C138.324 37.9867 137.51 37.6852 136.983 38.3704C134.329 40.6932 130.519 41.858 127.113 40.5698C124.63 39.8846 123.118 37.6098 122.065 35.4172C118.426 41.3098 108.658 43.4407 104.006 37.5619C100.586 40.3026 95.9006 42.0293 91.5434 40.5835C90.1965 40.2327 88.9629 39.5393 87.9622 38.5706C86.9616 37.6018 86.2277 36.3905 85.8317 35.0541C84.1696 34.9513 82.5074 34.8143 80.8589 34.5676C81.6318 39.6996 82.6031 44.9619 81.6797 50.1419C81.2009 52.6633 79.4908 55.3287 76.7 55.5206C74.3811 55.4315 72.8421 53.3417 72.3085 51.2656C70.7284 45.6744 70.8721 39.7887 70.9405 34.04C68.8131 35.0404 66.0428 35.4583 64.1412 33.7933C62.609 32.423 62.8826 30.203 63.2041 28.3667C63.5393 27.5102 61.925 27.1402 61.6035 27.9145C58.5664 31.1143 57.6566 35.5748 56.2681 39.6037C55.584 41.5428 53.1352 41.3372 51.8424 40.145L51.3294 37.8154C48.1623 40.0011 44.3318 41.7963 40.3849 40.8987C36.4244 40.4944 33.0248 36.952 33.0727 32.882C32.6007 28.6202 34.4407 24.0089 38.2166 21.782C40.6243 20.4596 43.8598 19.8841 46.2402 21.5765C48.8053 23.4265 48.9079 27.4143 47.1158 29.8398C45.18 32.7519 41.5136 33.4165 38.5175 34.7183C42.3823 37.9798 47.9982 35.7735 51.0079 32.4024C51.0405 28.6465 51.7688 24.9292 53.1557 21.4395C54.6537 20.6583 56.3365 20.1993 57.9781 20.8845C57.2941 24.3926 56.1791 27.8391 55.9876 31.4295C56.7866 29.5101 57.7003 27.6407 58.7237 25.8315C60.7758 22.8783 64.1959 19.3154 68.1565 21.0352C69.463 23.913 67.8213 26.962 67.9923 29.9426C69.2851 30.1345 71.2141 30.292 71.2961 28.4969C72.3153 20.8433 73.7792 13.0596 77.3977 6.15982C78.882 3.6589 80.6263 0.746862 83.6907 0.102788ZM83.0067 4.89908C81.1872 7.40686 80.4827 10.497 79.5866 13.4159C78.5673 17.0176 77.8512 20.6985 77.4456 24.42C81.5497 19.2743 85.2777 12.9569 84.6689 6.11871C84.7715 5.06353 84.0327 4.41945 83.0204 4.91964L83.0067 4.89908ZM127.003 19.9732C128.942 18.4541 130.45 16.453 131.376 14.1689C132.302 11.8849 132.616 9.39758 132.284 6.95464L130.745 7.03686C128.159 10.7917 127.899 15.5811 127.017 19.9663L127.003 19.9732ZM40.8159 24.9407C38.5723 26.1261 38.2918 28.9559 37.9429 31.1896C40.9732 30.7032 44.7285 28.6613 43.7025 24.9887C42.7448 24.9202 41.6777 24.3378 40.8022 24.9339L40.8159 24.9407ZM90.4421 31.1691C92.3642 30.758 94.3205 30.0317 95.627 28.4832C96.7146 27.3595 96.6599 24.4543 94.5736 24.6461C91.3108 24.6598 90.7157 28.6613 90.4284 31.1622L90.4421 31.1691ZM142.613 26.8387C141.861 28.2545 141.483 29.8391 141.514 31.4423C141.545 33.0455 141.985 34.6142 142.791 35.9996C144.015 36.0613 145.609 36.8493 146.546 35.6982C148.68 33.5604 148.673 30.1002 147.962 27.3595C147.394 24.8859 143.618 24.5913 142.599 26.8319L142.613 26.8387Z" fill="#19063D"/>
<path d="M6.71503 10.1999C8.58498 8.13593 10.872 6.49413 13.4241 5.38365C15.9763 4.27317 18.7351 3.71943 21.5174 3.7592C24.9375 3.86883 28.4603 4.8418 30.9091 7.31531C33.6452 10.0561 34.4592 14.3727 33.5016 18.0727C32.6055 22.2592 29.37 25.6851 25.56 27.4598C23.0428 28.6999 20.2041 28.9192 17.468 29.2892C16.8386 33.1948 16.2299 37.1072 15.3338 40.9374C15.1006 42.0996 14.5206 43.1635 13.6704 43.9882C12.8203 44.8128 11.7401 45.3594 10.573 45.5555C8.89165 45.6449 7.21902 45.2602 5.74507 44.445C4.27112 43.6299 3.05493 42.417 2.23465 40.9442C0.182568 37.3949 -0.132084 33.1742 0.0526035 29.1659C0.250972 22.3688 2.15941 15.3662 6.71503 10.1999ZM6.78344 18.5524C4.68347 24.2325 3.94472 30.6322 5.49746 36.5316C6.00364 38.0801 7.00917 40.5605 9.02705 39.9575C10.8739 36.7851 10.6345 32.8522 11.6195 29.3646C10.5675 29.142 9.53211 28.8467 8.52087 28.4807C7.69319 27.4186 8.29514 25.9318 8.30198 24.7053C9.62521 24.5532 10.9633 24.5901 12.2762 24.8149C12.9192 21.6699 13.3091 18.4838 13.9931 15.3457C14.3351 12.7009 18.152 11.6594 19.7868 13.7286C20.0809 17.5246 18.6582 21.1972 18.3777 24.9657C21.3874 24.2805 24.8691 23.3212 26.3808 20.3338C27.9131 17.1614 28.2961 12.6461 25.3822 10.1314C23.2001 8.20605 20.1015 8.44587 17.3995 8.62402C12.2557 9.45994 8.52087 13.8794 6.78344 18.5524Z" fill="#19063D"/>
<ellipse cx="156.626" cy="42.0769" rx="3.24281" ry="3.65934" fill="#E97363"/>
</svg>
