<?xml version="1.0" encoding="UTF-8"?><svg id="a" xmlns="http://www.w3.org/2000/svg" viewBox="0 0 83.11 29.26"><defs><style>.b{fill:#e97363;}.c{fill:#19063d;}</style></defs><path class="c" d="M39.85,1.21c.44-.1,.9-.06,1.31,.12,.41,.18,.74,.47,.94,.85,.78,1.27,.61,2.81,.41,4.19-.85,3.9-3.7,7.05-6.63,9.82-.17,3.68-.4,7.43,.38,11.07,.85-.06,.86-.94,.98-1.54,.18-2.56-.43-5.08-.94-7.59,.05-.36,.2-.69,.43-.99s.53-.53,.88-.68c1.1-.09,2.21-.03,3.31-.1,.17-2.77,3.13-5.37,6.19-4.68,1.94,.35,2.66,2.65,1.74,4.13-.92,1.8-3.18,2.23-4.99,2.92,1.88,1.55,4.54,.65,6.29-.6,.16-1.84,.48-3.82,1.99-5.17,1.25-1.12,3.29-1.87,4.93-1.04,1.5,.77,1.6,2.8,.59,3.96-.27,.19-.61,.29-.95,.28-.34,0-.67-.13-.93-.33,.07-.63,.24-1.25,.27-1.88-.62-.71-1.71-.11-2.1,.51-.78,1.3-1.04,2.99-.24,4.33,.7,.91,2.08,.84,3.13,.63,1.5-.48,2.63-1.59,3.71-2.64,0-.92,.02-1.83,.05-2.75-.62-.06-1.25-.13-1.88-.2-.18-.35-.27-.73-.26-1.11,.01-.39,.13-.76,.33-1.1,.71-.05,1.41-.09,2.12-.14,.51-2.77,1.29-5.68,3.35-7.85,.95-1.01,2.63-1.51,3.84-.58,1.69,2.91,.08,6.43-2.4,8.49,1-.04,2.01-.02,3.01,.04,.65,.39,.3,1.27,.03,1.79-1.61,.92-3.6,.45-5.38,.67,.09,1.73-.31,3.84,1.13,5.18,1.47,.8,3.21,.08,4.26-.99-.04-1.65,.03-3.45,1.24-4.78,1.4-1.98,4.73-2.61,6.67-.96,3.01,2.66,1.65,8.41-2.54,9.32-.72,.17-1.48,.16-2.2-.03-.72-.19-1.36-.56-1.87-1.07-.21-.35-.66-.5-.95-.15-1.46,1.18-3.55,1.77-5.42,1.11-1.36-.35-2.19-1.5-2.77-2.61-2,2.98-7.36,4.06-9.92,1.09-1.88,1.39-4.45,2.26-6.84,1.53-.74-.18-1.42-.53-1.97-1.02-.55-.49-.95-1.1-1.17-1.78-.91-.05-1.83-.12-2.73-.25,.42,2.6,.96,5.26,.45,7.88-.26,1.28-1.2,2.63-2.73,2.72-1.27-.05-2.12-1.1-2.41-2.15-.87-2.83-.79-5.81-.75-8.72-1.17,.51-2.69,.72-3.73-.12-.84-.69-.69-1.82-.51-2.75,.18-.43-.7-.62-.88-.23-1.67,1.62-2.17,3.88-2.93,5.92-.38,.98-1.72,.88-2.43,.27l-.28-1.18c-1.74,1.11-3.84,2.02-6.01,1.56-2.18-.2-4.04-2-4.02-4.06-.26-2.16,.75-4.49,2.82-5.62,1.32-.67,3.1-.96,4.41-.1,1.41,.94,1.47,2.96,.48,4.18-1.06,1.47-3.08,1.81-4.72,2.47,2.12,1.65,5.21,.53,6.86-1.17,.02-1.9,.42-3.78,1.18-5.55,.82-.4,1.75-.63,2.65-.28-.38,1.78-.99,3.52-1.09,5.34,.44-.97,.94-1.92,1.5-2.83,1.13-1.49,3.01-3.3,5.18-2.43,.72,1.46-.18,3-.09,4.51,.71,.1,1.77,.18,1.81-.73,.56-3.87,1.36-7.81,3.35-11.31,.82-1.27,1.77-2.74,3.46-3.07Zm-.38,2.43c-1,1.27-1.39,2.83-1.88,4.31-.56,1.82-.95,3.69-1.18,5.57,2.25-2.6,4.3-5.8,3.97-9.26,.06-.53-.35-.86-.91-.61h0Zm24.16,7.62c1.06-.77,1.89-1.78,2.4-2.94,.51-1.16,.68-2.42,.5-3.65l-.85,.04c-1.42,1.9-1.56,4.33-2.05,6.54h0Zm-47.33,2.52c-1.23,.6-1.39,2.03-1.58,3.16,1.49-.22,3.29-1.07,3.26-2.57,0-.31-.25-.58-.56-.64-.39-.08-.79-.17-1.13,.05h0Zm27.25,3.16c1.06-.21,2.13-.58,2.85-1.36,.6-.57,.57-2.04-.58-1.94-1.79,0-2.12,2.03-2.28,3.3h0Zm28.65-2.19c-.41,.72-.62,1.52-.6,2.33s.26,1.61,.7,2.31c.67,.03,1.55,.43,2.06-.15,1.17-1.08,1.17-2.83,.78-4.22-.31-1.25-2.39-1.4-2.95-.27h0Z"/><path class="c" d="M3.71,3.26c1.03-1.04,2.28-1.88,3.68-2.44C8.8,.26,10.31-.02,11.84,0c1.88,.06,3.81,.55,5.16,1.8,1.5,1.39,1.95,3.57,1.42,5.45-.49,2.12-2.27,3.85-4.36,4.75-1.38,.63-2.94,.74-4.44,.93-.35,1.98-.92,5.32-1.41,7.26-.13,.59-.45,1.13-.91,1.54-.47,.42-1.06,.69-1.7,.79-.92,.05-1.84-.15-2.65-.56-.81-.41-1.48-1.03-1.93-1.77C-.12,18.39-.05,14.89,.05,12.86c.11-3.44,1.16-6.99,3.66-9.6Zm.04,4.23c-1.15,2.88-1.8,7.48-.95,10.47,.14,.39,.35,.9,.66,1.28,.46,.55,1.39,.38,1.65-.29,.68-1.75,.83-4.46,1.3-5.98-.58-.11-1.15-.26-1.7-.45-.45-.54-.12-1.29-.12-1.91,.73-.08,1.46-.06,2.18,.06,.35-1.59,.57-3.2,.94-4.79,.19-1.34,2.28-1.87,3.18-.82,.16,1.92-.62,3.78-.77,5.69,1.65-.35,3.57-.83,4.4-2.34,.84-1.61,1.05-3.89-.55-5.16-1.2-.97-2.9-.85-4.38-.76-2.83,.42-4.88,2.66-5.83,5.03Z"/><ellipse class="b" cx="81.33" cy="20.09" rx="1.78" ry="1.85"/></svg>